<svg xmlns="http://www.w3.org/2000/svg" xmlns:xlink="http://www.w3.org/1999/xlink" width="500" zoomAndPan="magnify" viewBox="0 0 375 374.999991" height="500" preserveAspectRatio="xMidYMid meet" version="1.0"><defs><clipPath id="e7313aed3d"><path d="M 39.914062 7.339844 L 335.414062 7.339844 L 335.414062 367.339844 L 39.914062 367.339844 Z M 39.914062 7.339844 " clip-rule="nonzero"/></clipPath></defs><g clip-path="url(#e7313aed3d)"><path fill="#ffffff" d="M 300 133.105469 C 301.800781 125.828125 302.664062 118.335938 302.664062 110.84375 C 302.738281 53.78125 251.007812 7.382812 187.464844 7.382812 C 123.917969 7.382812 72.261719 53.78125 72.261719 110.84375 C 72.261719 118.335938 73.199219 125.757812 74.929688 133.105469 C 52.882812 148.019531 39.914062 171.21875 39.914062 196.289062 C 39.914062 239.875 79.324219 275.324219 127.738281 275.324219 L 184.148438 275.324219 L 184.148438 360.410156 C 184.148438 364.371094 187.390625 367.613281 191.355469 367.613281 C 195.316406 367.613281 198.558594 364.371094 198.558594 360.410156 L 198.558594 275.25 L 247.261719 275.25 C 295.675781 275.25 335.011719 239.804688 335.011719 196.21875 C 335.085938 171.21875 322.046875 148.019531 300 133.105469 Z M 247.261719 260.84375 L 198.558594 260.84375 L 198.558594 165.742188 L 240.777344 126.621094 C 243.730469 123.882812 243.875 119.34375 241.136719 116.460938 C 238.398438 113.507812 233.859375 113.363281 230.980469 116.101562 L 198.558594 146.144531 L 198.558594 93.046875 C 198.558594 89.085938 195.316406 85.84375 191.355469 85.84375 C 187.390625 85.84375 184.148438 89.085938 184.148438 93.046875 L 184.148438 194.34375 L 151.730469 164.300781 C 148.773438 161.5625 144.234375 161.777344 141.570312 164.660156 C 138.832031 167.613281 139.050781 172.152344 141.929688 174.820312 L 184.148438 213.941406 L 184.148438 260.914062 L 127.738281 260.914062 C 87.246094 260.84375 54.324219 231.878906 54.324219 196.289062 C 54.324219 174.675781 66.5 154.574219 86.960938 142.542969 C 89.839844 140.8125 91.136719 137.425781 90.203125 134.183594 C 87.824219 126.546875 86.671875 118.695312 86.671875 110.84375 C 86.671875 61.777344 131.917969 21.792969 187.464844 21.792969 C 243.082031 21.792969 288.253906 61.777344 288.253906 110.84375 C 288.253906 118.695312 287.101562 126.546875 284.726562 134.183594 C 283.71875 137.355469 285.085938 140.8125 287.96875 142.542969 C 308.429688 154.574219 320.605469 174.675781 320.605469 196.289062 C 320.675781 231.878906 287.75 260.84375 247.261719 260.84375 Z M 247.261719 260.84375 " fill-opacity="1" fill-rule="nonzero"/></g></svg>